<?xml version="1.0" encoding="iso-8859-1"?>
<svg version="1.1" xmlns="http://www.w3.org/2000/svg"
	 viewBox="0 0 512 512" width="40" height="40">
<g>
	<g>
		<path d="M464.631,281.122C474.767,270.374,481,255.905,481,240c0-33.084-26.916-60-60-60s-60,26.916-60,60
			c0,15.965,6.28,30.482,16.484,41.243c-20.763,11.518-36.521,31.004-43.107,54.303c-8.388-9.499-18.442-17.485-29.782-23.488
			C320.736,298.292,331,277.828,331,255c0-22.789-10.23-43.222-26.323-56.988C338.129,180.434,361,145.34,361,105
			C361,47.103,313.897,0,256,0c-57.897,0-105,47.103-105,105c0,40.34,22.871,75.434,56.323,93.012
			C191.23,211.778,181,232.211,181,255c0,22.828,10.264,43.292,26.405,57.059c-11.44,6.056-21.421,14.019-29.782,23.488
			c-6.586-23.299-22.344-42.785-43.107-54.303C144.72,270.482,151,255.965,151,240c0-33.084-26.916-60-60-60s-60,26.916-60,60
			c0,15.905,6.233,30.374,16.369,41.122C19.504,296.35,0,325.655,0,360v76c0,8.284,6.716,15,15,15h136v46c0,8.284,6.716,15,15,15
			h180c8.284,0,15-6.716,15-15v-46h136c8.284,0,15-6.716,15-15v-76C512,326.138,492.931,296.588,464.631,281.122z M91,210
			c16.542,0,30,13.458,30,30s-13.458,30-30,30s-30-13.458-30-30S74.458,210,91,210z M151,421H30v-61c0-33.084,27.364-60,61-60
			c33.084,0,60,26.916,60,60C151,367.075,151,414.658,151,421z M181,105c0-41.355,33.645-75,75-75s75,33.645,75,75s-33.645,75-75,75
			C214.645,180,181,146.355,181,105z M256,300c-24.813,0-45-20.187-45-45s20.187-45,45-45s45,20.187,45,45S280.813,300,256,300z
			 M281.654,334.582L256.008,355.6l-25.619-21.032C238.384,331.615,247.009,330,256,330C265.007,330,273.646,331.62,281.654,334.582
			z M331,482H181c0-18.144,0-61.275,0-76c0-21.345,8.741-40.65,22.772-54.469l42.711,35.063c2.767,2.271,6.142,3.406,9.518,3.406
			c3.371,0,6.744-1.133,9.508-3.398l42.754-35.038C322.273,365.379,331,384.671,331,406C331,420.745,331,464.007,331,482z M421,210
			c16.542,0,30,13.458,30,30s-13.458,30-30,30s-30-13.458-30-30S404.458,210,421,210z M482,421H361c0-6.343,0-53.923,0-61
			c0-33.084,26.916-60,60-60c33.636,0,61,26.916,61,60V421z"/>
	</g>
</g>
<g>
	<g>
		<path d="M286,90h-15V75c0-8.284-6.716-15-15-15s-15,6.716-15,15v30c0,8.284,6.716,15,15,15h30c8.284,0,15-6.716,15-15
			S294.284,90,286,90z"/>
	</g>
</g>
</svg>
